<?xml version="1.0" encoding="UTF-8" standalone="no"?>
<!-- Created with Inkscape (http://www.inkscape.org/) -->

<svg
   width="622.89117mm"
   height="763.10083mm"
   viewBox="0 0 622.89117 763.10083"
   version="1.1"
   id="svg1"
   xml:space="preserve"
   xmlns:inkscape="http://www.inkscape.org/namespaces/inkscape"
   xmlns:sodipodi="http://sodipodi.sourceforge.net/DTD/sodipodi-0.dtd"
   xmlns="http://www.w3.org/2000/svg"
   xmlns:svg="http://www.w3.org/2000/svg"><sodipodi:namedview
     id="namedview1"
     pagecolor="#505050"
     bordercolor="#eeeeee"
     borderopacity="1"
     inkscape:showpageshadow="0"
     inkscape:pageopacity="0"
     inkscape:pagecheckerboard="0"
     inkscape:deskcolor="#505050"
     inkscape:document-units="mm"
     inkscape:export-bgcolor="#00000000"><inkscape:page
       x="0"
       y="0"
       width="622.89117"
       height="763.10083"
       id="page2"
       margin="0"
       bleed="0" /></sodipodi:namedview><defs
     id="defs1" /><g
     inkscape:label="Layer 1"
     inkscape:groupmode="layer"
     id="layer1"
     transform="translate(1347.7875,-1415.518)"><path
       style="fill:#ed4b00;fill-opacity:1;fill-rule:nonzero"
       d="m -1347.1562,2178.6187 h -0.6313 l 0.1657,-1.209 0.1657,-1.209 0.6485,-2.6936 0.6484,-2.6936 0.5676,-2.9104 0.5676,-2.9104 1.0383,-5.0271 1.0383,-5.0271 0.8019,-3.5719 0.8018,-3.5719 0.4078,-1.7198 0.4077,-1.7197 0.3618,-1.9844 0.3617,-1.9844 0.7828,-3.7042 0.7828,-3.7041 1.6068,-7.6729 1.6067,-7.6729 0.5222,-2.5136 0.5221,-2.5135 1.4677,-6.7469 1.4678,-6.7469 0.5382,-2.5135 0.5381,-2.5136 0.4082,-1.7198 0.4082,-1.7197 0.7654,-3.8365 0.7654,-3.8365 1.8459,-8.4666 1.8459,-8.4667 0.6903,-3.175 0.6902,-3.175 0.9242,-4.101 0.9242,-4.1011 0.635,-3.175 0.6351,-3.175 0.7905,-3.8364 0.7904,-3.8365 0.5612,-2.3812 0.5613,-2.3813 1.0537,-5.1594 1.0538,-5.1593 0.7846,-3.2085 0.7846,-3.2085 0.2373,-1.1572 0.2372,-1.1571 0.6681,-3.175 0.668,-3.175 0.5557,-2.6458 0.5557,-2.6459 1.3082,-5.9531 1.3082,-5.9531 1.7493,-8.2021 1.7493,-8.2021 0.7895,-3.7041 0.7896,-3.7042 0.2312,-1.3229 0.2312,-1.3229 1.585,-7.0115 1.585,-7.0115 0.5762,-3.0427 0.5761,-3.0427 1.3008,-5.5562 1.3009,-5.5563 0.4125,-1.9843 0.4125,-1.9844 0.7571,-3.5719 0.7571,-3.5719 0.5379,-2.6458 0.5379,-2.6458 1.0683,-4.8948 1.0684,-4.8948 0.5381,-2.6459 0.538,-2.6458 1.0541,-4.7625 1.054,-4.7625 0.9243,-4.2333 0.9243,-4.2334 0.5124,-2.2489 0.5124,-2.249 0.547,-2.6458 0.5469,-2.6458 0.9152,-4.3657 0.9152,-4.3656 1.1981,-5.5562 1.198,-5.5563 0.403,-1.9844 0.4029,-1.9843 0.7687,-3.5719 0.7687,-3.5719 0.3998,-1.9844 0.3998,-1.9843 1.4844,-6.7469 1.4844,-6.7469 0.5009,-2.5135 0.5009,-2.5136 0.6534,-2.9104 0.6533,-2.9104 1.2174,-5.9531 1.2174,-5.9531 0.6504,-2.9105 0.6504,-2.9104 1.2032,-5.5562 1.2032,-5.5563 0.412,-1.8521 0.4121,-1.852 0.4939,-2.1167 0.494,-2.1167 1.8735,-8.7312 1.8735,-8.7313 1.329,-6.35 1.3289,-6.35 0.5151,-2.5135 0.515,-2.5136 0.9262,-3.9687 0.9263,-3.9688 1.571,-7.0114 1.571,-7.0115 0.795,-3.9687 0.795,-3.9688 1.2041,-5.4239 1.2042,-5.424 0.9094,-4.3656 0.9094,-4.3656 1.2295,-5.6886 1.2294,-5.6885 0.5235,-2.3813 0.5236,-2.3812 0.7372,-3.4396 0.7373,-3.4396 1.3643,-6.4823 1.3643,-6.4823 0.8183,-3.7041 0.8183,-3.7042 0.6156,-2.6458 0.6157,-2.6459 1.062,-5.1594 1.0619,-5.1593 0.7008,-2.9104 0.7008,-2.9105 0.349,-1.7198 0.349,-1.7197 0.8306,-3.7042 0.8306,-3.7042 0.6515,-3.3073 0.6515,-3.3073 0.7734,-3.4395 0.7734,-3.4396 1.0788,-5.0271 1.0788,-5.0271 1.4702,-6.6146 1.4702,-6.6146 0.6129,-2.9104 0.6129,-2.9104 1.2407,-5.8208 1.2407,-5.8209 1.0493,-4.6302 1.0494,-4.6302 0.2813,-1.7198 0.2813,-1.7198 0.2402,-0.454 0.2403,-0.454 1.12,-0.2917 1.12,-0.2917 4.101,-1.1547 4.101,-1.1546 5.9532,-1.6265 5.9531,-1.6264 6.4823,-1.8115 6.4823,-1.8115 6.4823,-1.7681 6.4823,-1.7681 1.1906,-0.3293 1.1906,-0.3293 8.4667,-2.3174 8.4666,-2.3174 1.9844,-0.5194 1.9844,-0.5195 3.175,-0.9363 3.175,-0.9363 2.7781,-0.7407 2.7781,-0.7406 2.1167,-0.574 2.1167,-0.574 1.8521,-0.4783 1.852,-0.4783 3.0428,-0.8429 3.0427,-0.8428 3.5718,-1.0155 3.5719,-1.0155 6.6146,-1.7654 6.6146,-1.7654 5.0271,-1.4082 5.027,-1.4081 5.8209,-1.6261 5.8208,-1.626 2.7781,-0.7704 2.7782,-0.7704 3.3072,-0.9002 3.3073,-0.9003 4.8948,-1.3531 4.8948,-1.3531 4.2334,-1.1855 4.2333,-1.1854 5.5562,-1.49 5.5563,-1.4899 2.2489,-0.5918 2.249,-0.5918 4.8948,-1.4046 4.8948,-1.4046 2.2489,-0.5924 2.249,-0.5923 5.9531,-1.6517 5.9531,-1.6517 1.45526,-0.3269 1.45521,-0.3268 2.24896,-0.6876 2.24896,-0.6877 1.98437,-0.5297 1.98438,-0.5296 6.35,-1.7467 6.35,-1.7466 7.27604,-1.9545 7.27604,-1.9545 4.23333,-1.2342 4.23334,-1.2341 5.82083,-1.5381 5.82083,-1.5382 3.30729,-0.9726 3.30729,-0.9727 3.04271,-0.76 3.04271,-0.76 1.71979,-0.5291 1.71979,-0.5291 4.36563,-1.2266 4.36562,-1.2265 4.7625,-1.2754 4.7625,-1.2753 3.43959,-0.9283 3.43958,-0.9282 2.24896,-0.6768 2.24896,-0.6769 10.9802,-2.9362 10.98021,-2.9363 5.78846,-1.575 5.78847,-1.5751 4.13341,-1.1839 4.13341,-1.1838 1.85208,-0.5072 1.85209,-0.5072 4.36562,-1.1998 4.36563,-1.1999 6.35,-1.7077 6.35,-1.7078 5.55625,-1.502 5.55625,-1.5019 3.30729,-0.8712 3.30729,-0.8713 4.10104,-1.1942 4.10104,-1.1943 4.63021,-1.2412 4.63021,-1.2413 3.04271,-0.8683 3.0427,-0.8683 0.92605,-0.1871 0.92604,-0.1871 2.11666,-0.6278 2.11667,-0.6277 3.175,-0.8239 3.175,-0.8238 6.08542,-1.7293 6.08541,-1.7293 2.77813,-0.7379 2.77812,-0.7379 1.45521,-0.4164 1.45521,-0.4164 3.96875,-1.0955 3.96875,-1.0954 1.85208,-0.4713 1.85208,-0.4712 5.68855,-1.5029 5.68854,-1.503 2.51354,-0.6742 2.51354,-0.6742 0.54526,-0.1204 0.54526,-0.1205 0.30969,0.3731 0.3097,0.3732 -2.27294,11.6205 -2.27293,11.6205 -0.75044,3.8365 -0.75045,3.8364 -1.61049,7.6729 -1.61049,7.673 -0.21941,1.1906 -0.21941,1.1906 -2.54697,12.5677 -2.54698,12.5677 -0.9363,4.4979 -0.93629,4.4979 -0.78392,3.8365 -0.78393,3.8365 -1.70406,8.202 -1.70406,8.2021 -1.22086,5.8209 -1.22087,5.8208 -0.92321,4.7625 -0.92321,4.7625 -0.53537,2.3812 -0.53538,2.3813 -0.63669,2.7781 -0.63669,2.7781 -1.61001,7.9375 -1.61001,7.9375 -0.92492,4.8948 -0.92492,4.8948 -0.24492,0.9261 -0.24491,0.926 -2.13216,10.1865 -2.13216,10.1864 -0.6871,3.175 -0.6871,3.175 -0.59961,2.7781 -0.59961,2.7782 -0.40978,1.9843 -0.40978,1.9844 -0.66982,3.4396 -0.66981,3.4396 -0.65152,3.0427 -0.65152,3.0427 -1.86445,8.8635 -1.86445,8.8636 -0.41151,1.8521 -0.41152,1.8521 -0.24282,1.1906 -0.24283,1.1906 -1.34849,6.4823 -1.3485,6.4823 -0.36807,1.8521 -0.36806,1.8521 -0.53573,2.5135 -0.53574,2.5135 -0.94807,4.3657 -0.94807,4.3656 -0.22542,1.1906 -0.22543,1.1906 -0.69746,3.175 -0.69746,3.175 -0.75641,3.5719 -0.7564,3.5719 -1.19873,5.6885 -1.19872,5.6886 -0.53635,2.2489 -0.53635,2.249 -0.94657,4.2268 -0.94656,4.2269 -0.36243,0.5531 -0.36244,0.5532 -2.34088,0.6865 -2.34089,0.6865 -5.42396,1.3738 -5.42396,1.3739 -1.85208,0.5341 -1.85209,0.5341 -4.36562,1.1272 -4.36562,1.1272 -5.82084,1.5899 -5.82083,1.5899 -3.175,0.8557 -3.175,0.8557 -3.30729,0.9028 -3.30729,0.9029 -2.91042,0.7631 -2.91042,0.7631 -5.55625,1.5137 -5.55625,1.5137 -1.71979,0.3725 -1.71979,0.3726 -2.64583,0.7586 -2.64584,0.7586 -4.7625,1.2408 -4.7625,1.2407 -8.06979,2.11 -8.06979,2.11 -5.29166,1.4594 -5.29167,1.4594 -2.51354,0.6542 -2.51354,0.6543 -5.82084,1.5966 -5.82083,1.5966 -5.95312,1.5278 -5.95313,1.5278 -4.49792,1.2407 -4.49791,1.2407 -1.71979,0.4913 -1.71979,0.4913 -7.54063,2.0163 -7.54062,2.0163 -1.85209,0.5147 -1.85208,0.5147 -4.63021,1.2085 -4.63021,1.2084 -3.57187,1.0187 -3.57188,1.0187 -3.57187,0.9392 -3.57188,0.9392 -8.59895,2.2816 -8.599,2.2816 -5.2916,1.4296 -5.2917,1.4296 -2.3812,0.671 -2.3813,0.671 -3.5719,0.9392 -3.5718,0.9392 -2.3813,0.6251 -2.3812,0.6251 -1.5875,0.4217 -1.5875,0.4218 -3.3073,0.919 -3.3073,0.919 -5.1594,1.3587 -5.1594,1.3587 -4.3024,1.1341 -4.3024,1.1341 -1.2539,0.3952 -1.2538,0.3952 -0.9922,0.1662 -0.9922,0.1663 v 0.199 0.1989 l 78.11827,78.199 78.11823,78.1989 28.18772,28.4156 28.18771,28.4157 5.82871,5.9531 5.8287,5.9531 6.90691,7.1438 6.90691,7.1437 0.79968,1.0097 0.79967,1.0097 -0.14439,0.3762 -0.14438,0.3763 -1.75883,0.513 -1.75883,0.5131 -4.49792,1.2197 -4.49791,1.2196 -5.68855,1.5717 -5.68854,1.5718 -4.6302,1.2292 -4.63021,1.2292 -2.91042,0.7718 -2.91042,0.7717 -3.43958,0.8943 -3.43958,0.8943 -3.04271,0.8427 -3.04271,0.8427 -2.77812,0.7643 -2.77813,0.7643 -2.51354,0.6913 -2.51354,0.6913 -3.30729,0.9017 -3.30729,0.9018 -3.97731,1.026 -3.97732,1.0261 -1.84352,0.5477 -1.84352,0.5478 -3.83646,0.9522 -3.83646,0.9523 -1.71979,0.4917 -1.71979,0.4917 -3.70417,0.9673 -3.70416,0.9674 -1.32292,0.3845 -1.32292,0.3845 -3.83645,1.0277 -3.83646,1.0277 -4.23334,1.1946 -4.23333,1.1945 -3.50765,0.9731 -3.50765,0.973 -0.62351,-0.1565 -0.6235,-0.1565 -7.64164,-7.743 -7.64163,-7.7431 -7.93867,-8.0733 -7.93866,-8.0734 -7.54386,-7.6693 -7.54385,-7.6694 -11.24648,-11.5094 -11.2465,-11.5094 -3.0378,-3.1664 -3.0378,-3.1665 -9.5407,-9.6658 -9.5408,-9.6658 -4.4822,-4.6351 -4.4821,-4.635 -6.4823,-6.6005 -6.4823,-6.6006 -5.4239,-5.4684 -5.424,-5.4683 -24.4739,-24.6862 -24.474,-24.6862 -7.8119,-7.8224 -7.8119,-7.8223 -8.5823,-8.7974 -8.5824,-8.7974 h -0.3356 -0.3356 l -0.1104,0.5953 -0.1105,0.5953 -0.7031,3.3073 -0.7032,3.3073 -1.2856,5.9531 -1.2855,5.9531 -0.2911,1.3229 -0.291,1.323 -1.7221,7.9375 -1.7221,7.9375 -0.4053,1.852 -0.4053,1.8521 -0.402,1.7198 -0.402,1.7198 -1.3174,6.4823 -1.3174,6.4823 -0.6534,2.9104 -0.6535,2.9104 -0.5196,2.1167 -0.5197,2.1167 -0.6496,3.3073 -0.6496,3.3072 -0.9454,4.498 -0.9454,4.4979 -1.3337,5.9531 -1.3336,5.9531 -0.6657,3.0427 -0.6657,3.0427 -1.0271,4.498 -1.0272,4.4979 -1.2175,6.0854 -1.2175,6.0854 -1.692,7.6729 -1.692,7.6729 -0.1806,1.0584 -0.1807,1.0583 -1.2987,5.6885 -1.2986,5.6886 -1.0301,5.1594 -1.03,5.1593 -0.4122,1.7198 -0.4121,1.7198 -0.9407,4.3656 -0.9406,4.3657 -0.3749,1.8521 -0.3749,1.852 -0.6562,3.0427 -0.6561,3.0428 -0.6949,3.175 -0.6949,3.175 -1.2992,6.4195 -1.2992,6.4195 -0.5033,2.0471 -0.5032,2.0472 -0.6918,3.3073 -0.6917,3.3073 -1.3395,6.2177 -1.3395,6.2177 -0.7645,3.7042 -0.7645,3.7041 -1.0864,5.0271 -1.0865,5.0271 -0.8987,4.3656 -0.8986,4.3656 -0.8165,3.7042 -0.8164,3.7042 -0.7747,3.5718 -0.7746,3.5719 -0.5356,2.5136 -0.5355,2.5135 -0.8065,3.6948 -0.8064,3.6948 -0.4039,0.4462 -0.4038,0.4462 -3.8853,1.063 -3.8853,1.063 -3.4396,0.9347 -3.4395,0.9347 -3.3073,0.8157 -3.3073,0.8157 -2.9104,0.7875 -2.9105,0.7874 -4.101,1.0678 -4.101,1.0678 -4.498,1.1515 -4.4979,1.1516 -4.4979,1.2027 -4.4979,1.2027 -6.3098,1.6079 -6.3097,1.6079 -2.0246,0.5478 -2.0247,0.5479 -3.3072,0.8725 -3.3073,0.8725 -3.175,0.9307 -3.175,0.9306 -7.1438,1.8754 -7.1437,1.8753 -5.1594,1.3363 -5.1594,1.3362 -5.9531,1.5633 -5.9531,1.5632 -2.3813,0.6704 -2.3812,0.6704 z m 6.6538,-6.7311 0.5921,-0.18 6.0854,-1.5484 6.0854,-1.5484 4.6302,-1.2067 4.6302,-1.2066 6.35,-1.7367 6.35,-1.7368 5.5562,-1.4316 5.5563,-1.4317 3.0427,-0.8138 3.0427,-0.8137 6.6146,-1.7257 6.6146,-1.7256 10.5833,-2.7817 10.5833,-2.7817 4.498,-1.1979 4.4979,-1.1978 2.7781,-0.7347 2.7781,-0.7347 5.1594,-1.3578 5.1594,-1.3577 1.4454,-0.3962 1.4454,-0.3961 0.299,-0.3311 0.299,-0.3311 0.5917,-2.9104 0.5917,-2.9104 0.8988,-3.9687 0.8989,-3.9688 1.2098,-5.6885 1.2099,-5.6886 1.033,-4.8948 1.033,-4.8948 0.6931,-3.175 0.6931,-3.1749 0.9181,-4.3657 0.918,-4.3656 0.9254,-4.3656 0.9253,-4.3657 0.618,-3.175 0.6179,-3.1749 1.7494,-7.9375 1.7494,-7.9375 0.5452,-2.6459 0.5451,-2.6458 0.7965,-3.5719 0.7966,-3.5719 0.6377,-2.7781 0.6377,-2.7781 0.9485,-4.8948 0.9484,-4.8948 0.248,-0.7937 0.2481,-0.7938 1.2162,-5.8208 1.2163,-5.8209 0.4916,-2.2489 0.4916,-2.249 1.0544,-4.8948 1.0545,-4.8948 1.4975,-6.8791 1.4976,-6.8792 0.6367,-2.9104 0.6367,-2.9104 0.9233,-4.4979 0.9234,-4.498 0.6397,-3.0427 0.6398,-3.0427 0.9659,-4.101 0.9659,-4.1011 0.5334,-2.7781 0.5334,-2.7781 1.6906,-7.5868 1.6907,-7.5868 1.3257,-6.4361 1.3257,-6.4361 0.6754,-3.0428 0.6754,-3.0427 0.7944,-3.8364 0.7944,-3.8365 0.9063,-3.9687 0.9064,-3.9688 1.6287,-7.4083 1.6287,-7.4083 0.6417,-2.9105 0.6416,-2.9104 0.6391,-3.0427 0.639,-3.0427 0.699,-3.0427 0.6989,-3.0427 0.7978,-3.8365 0.7979,-3.8364 0.9752,-4.8934 0.9753,-4.8933 0.4598,-0.089 0.4598,-0.088 13.4195,13.4736 13.4196,13.4736 28.0458,28.252 28.0458,28.2521 0.1532,0.2403 0.1532,0.2403 10.8303,10.9055 10.8303,10.9055 12.5333,12.8323 12.5332,12.8323 5.852,5.8245 5.852,5.8245 7.1438,7.4023 7.1437,7.4023 12.17085,12.3172 12.17084,12.3171 16.22976,16.4587 16.22976,16.4586 h 0.63207 0.63207 l 0.99754,-0.3731 0.99755,-0.3731 2.51354,-0.6537 2.51354,-0.6537 5.29166,-1.4002 5.29167,-1.4002 3.175,-0.857 3.175,-0.857 4.49792,-1.2118 4.49791,-1.2117 2.38125,-0.6692 2.38125,-0.6691 6.61459,-1.7161 6.61458,-1.716 7.27604,-1.9822 7.27604,-1.9822 4.49792,-1.2199 4.49791,-1.2199 4.36563,-1.1292 4.36562,-1.1293 5.42396,-1.5178 5.42396,-1.5178 4.36563,-1.1419 4.36562,-1.1419 3.04271,-0.8244 3.04271,-0.8243 3.0427,-0.8042 3.04271,-0.8042 0.38593,-0.3729 0.38594,-0.373 -4.784,-4.8301 -4.784,-4.8302 -10.81548,-10.9792 -10.81547,-10.9792 -16.53646,-16.6577 -16.53645,-16.6577 -47.22813,-47.2989 -47.22812,-47.2989 -40.55927,-40.6705 -40.5593,-40.6706 0.078,-0.5369 0.078,-0.5369 0.7937,-0.2105 0.7938,-0.2106 6.6146,-1.7189 6.6145,-1.719 2.249,-0.6448 2.249,-0.6447 6.2177,-1.717 6.2177,-1.717 2.9104,-0.6882 2.9104,-0.6882 1.7198,-0.4911 1.7198,-0.4912 2.5135,-0.6783 2.5136,-0.6783 5.4239,-1.4847 5.424,-1.4847 3.9687,-1.0742 3.9688,-1.0743 2.6458,-0.6347 2.6458,-0.6347 2.1167,-0.628 2.11669,-0.628 5.15937,-1.3753 5.15938,-1.3754 2.64583,-0.752 2.64583,-0.7521 3.57188,-0.9178 3.57187,-0.9178 5.15938,-1.3641 5.15937,-1.3641 4.36563,-1.1859 4.36562,-1.1859 2.11667,-0.6177 2.11667,-0.6177 2.77812,-0.7218 2.77813,-0.7219 4.76249,-1.2803 4.7625,-1.2803 3.57188,-0.9336 3.57187,-0.9336 2.38125,-0.6677 2.38125,-0.6677 8.0698,-2.1347 8.06979,-2.1346 4.6302,-1.2919 4.63021,-1.292 5.55625,-1.4924 5.55625,-1.4924 4.36563,-1.1305 4.36562,-1.1306 4.10104,-1.0754 4.10104,-1.0754 4.01078,-1.074 4.01077,-1.074 0.71839,-0.2732 0.71839,-0.2731 10.48438,-2.6153 10.48438,-2.6152 3.70416,-1.0588 3.70417,-1.0588 2.51354,-0.6764 2.51354,-0.6765 4.49792,-1.1909 4.49792,-1.1909 3.57187,-0.9679 3.57187,-0.968 6.21771,-1.6631 6.21771,-1.6631 3.43958,-0.9567 3.43959,-0.9567 0.56908,-0.24 0.56907,-0.24 0.17976,-1.1421 0.17976,-1.1421 0.49858,-2.249 0.49857,-2.2489 0.94035,-4.3657 0.94036,-4.3656 0.78463,-3.4396 0.78464,-3.4396 0.68162,-3.3073 0.68163,-3.3072 1.1536,-5.5563 1.15361,-5.5562 1.61412,-7.673 1.61412,-7.6729 1.83231,-8.9149 1.83231,-8.915 0.271,-1.0069 0.271,-1.0069 1.31593,-6.4823 1.31594,-6.4823 1.0871,-5.1594 1.08711,-5.1594 1.02829,-4.8947 1.02829,-4.8948 0.69348,-3.175 0.69347,-3.175 1.1836,-5.9532 1.1836,-5.9531 0.9014,-3.9687 0.9014,-3.9688 0.95436,-4.6302 0.95436,-4.6302 0.76772,-3.5719 0.76771,-3.5719 0.92204,-4.4979 0.92204,-4.4979 1.07591,-5.2917 1.07591,-5.2916 0.54311,-2.6459 0.54311,-2.6458 1.1669,-5.6885 1.16689,-5.6886 2.50771,-12.3031 2.50771,-12.3031 1.18833,-5.6886 1.18834,-5.6885 1.88225,-9.1281 1.88225,-9.1282 0.37085,-1.852 0.37085,-1.8521 1.35298,-6.4823 1.35298,-6.4823 0.63428,-3.175 0.63428,-3.175 1.08471,-5.1594 1.08471,-5.1594 0.21339,-1.1906 0.2134,-1.1906 0.97757,-4.8948 0.97758,-4.8948 0.76437,-3.8364 0.76437,-3.8365 0.5425,-2.4949 0.5425,-2.4949 v -0.4816 -0.4817 h -0.53951 -0.53951 l -4.42143,1.1979 -4.42142,1.1979 -2.38125,0.6512 -2.38125,0.6511 -2.38125,0.6315 -2.38125,0.6315 -4.49792,1.2371 -4.49791,1.2372 -1.7198,0.5326 -1.71979,0.5325 -6.35,1.6809 -6.35,1.6808 -3.175,0.8136 -3.175,0.8135 -4.23333,1.1606 -4.23333,1.1606 -3.96875,1.091 -3.96875,1.091 -4.23334,1.1905 -4.23333,1.1906 -2.38125,0.6397 -2.38125,0.6397 -3.70417,0.9567 -3.70416,0.9567 -3.175,0.8996 -3.175,0.8997 -5.15938,1.4478 -5.15937,1.4479 -3.175,0.8506 -3.175,0.8506 -3.83646,1.0525 -3.83646,1.0526 -2.38125,0.6536 -2.38125,0.6535 -1.85208,0.5043 -1.85208,0.5043 -4.23334,1.179 -4.23333,1.1791 -3.04271,0.7954 -3.04271,0.7954 -4.7625,1.316 -4.76249,1.316 -2.77813,0.8077 -2.77812,0.8078 -3.04271,0.7761 -3.04271,0.7761 -7.27604,2.011 -7.27604,2.011 -5.02709,1.433 -5.02708,1.433 -3.43958,0.9484 -3.43959,0.9483 -5.42395,1.4729 -5.42396,1.473 -3.96875,1.0472 -3.96875,1.0473 -2.11667,0.6355 -2.11666,0.6356 -4.63021,1.2029 -4.63021,1.2028 -1.85208,0.5393 -1.85209,0.5392 -5.82083,1.5933 -5.82083,1.5934 -4.89479,1.342 -4.8948,1.342 -5.95312,1.6627 -5.95313,1.6627 -5.1594,1.3711 -5.1594,1.3711 -2.5135,0.7539 -2.5135,0.7539 -2.6459,0.7066 -2.6458,0.7066 -3.5719,1.0224 -3.5718,1.0224 -4.1011,1.0706 -4.101,1.0706 -3.8365,1.0291 -3.8364,1.0291 -3.0428,0.8531 -3.0427,0.8532 -3.175,0.8952 -3.175,0.8952 -4.8947,1.3119 -4.8948,1.312 -3.8365,1.0371 -3.8365,1.0371 -3.4395,0.9598 -3.4396,0.9597 -6.35,1.7331 -6.35,1.733 -4.2334,1.1832 -4.2333,1.1833 -3.7042,1.0783 -3.7041,1.0784 -5.8209,1.5563 -5.8208,1.5563 -3.9687,1.088 -3.9688,1.088 -2.6458,0.731 -2.6459,0.7309 -3.4395,0.9772 -3.4396,0.9772 -2.3813,0.6591 -2.3812,0.659 -5.8209,1.5546 -5.8208,1.5547 -3.0427,0.8266 -3.0427,0.8267 -3.0427,0.8926 -3.0427,0.8926 -4.1011,1.0749 -4.101,1.075 -1.8521,0.5509 -1.8521,0.5509 -3.8364,1.0763 -3.8365,1.0763 -2.9104,0.7509 -2.9104,0.751 -4.7625,1.3671 -4.7625,1.3671 -4.1011,1.1731 -4.101,1.173 -0.333,0.1062 -0.333,0.1063 -0.2395,0.6027 -0.2395,0.6028 -0.8213,3.7041 -0.8212,3.7042 -2.1378,9.7896 -2.1377,9.7896 -1.0355,4.6302 -1.0354,4.6302 -1.3284,6.3387 -1.3284,6.3387 -0.5059,1.9957 -0.5059,1.9956 -0.54,2.6459 -0.5401,2.6458 -0.4207,1.9844 -0.4208,1.9843 -1.0235,4.8948 -1.0235,4.8948 -0.7897,3.5719 -0.7897,3.5719 -0.8375,3.8364 -0.8375,3.8365 -1.0135,4.6302 -1.0134,4.6302 -0.4347,2.249 -0.4346,2.2489 -1.2855,5.8209 -1.2855,5.8208 -0.6943,3.5719 -0.6943,3.5718 -0.6443,2.7782 -0.6444,2.7781 -1.3346,6.2177 -1.3347,6.2177 -0.9143,4.101 -0.9143,4.1011 -1.2014,5.6885 -1.2013,5.6886 -2.0024,9.1281 -2.0023,9.1281 -1.9364,8.8636 -1.9364,8.8635 -0.9779,4.6302 -0.978,4.6302 -1.04,4.4979 -1.04,4.4979 -1.0472,5.1594 -1.0471,5.1594 -0.3556,1.5875 -0.3556,1.5875 -0.9835,4.6302 -0.9835,4.6302 -1.1785,5.424 -1.1784,5.4239 -0.5167,2.3813 -0.5168,2.3812 -1.0881,4.8948 -1.0881,4.8948 -0.8932,4.2333 -0.8931,4.2334 -1.054,5.0271 -1.054,5.027 -1.7391,7.9375 -1.7391,7.9375 -0.9014,4.2334 -0.9014,4.2333 -0.8011,3.8365 -0.8011,3.8364 -2.018,9.525 -2.018,9.525 -1.3359,6.0854 -1.336,6.0855 -0.6447,2.9104 -0.6446,2.9104 -1.3067,6.2177 -1.3066,6.2177 -0.6739,3.0427 -0.6739,3.0427 -0.4955,2.5136 -0.4956,2.5135 -0.6653,2.9104 -0.6654,2.9104 -0.6869,3.4396 -0.687,3.4396 -0.7708,3.4396 -0.7709,3.4396 -0.9624,4.4979 -0.9624,4.4979 -0.5246,2.249 -0.5245,2.2489 -1.5866,7.5406 -1.5865,7.5407 -0.7605,3.7041 -0.7605,3.7042 -1.4517,6.35 -1.4516,6.35 -0.5421,2.7781 -0.5422,2.7782 -0.8138,3.8364 -0.8137,3.8365 -0.5458,2.5135 -0.5459,2.5136 -0.4877,2.2489 -0.4878,2.249 -0.6783,2.9104 -0.6783,2.9104 -0.7608,3.5719 -0.7608,3.5719 -0.418,1.9843 -0.418,1.9844 -0.8132,3.7042 -0.8132,3.7041 -1.5907,7.4084 -1.5907,7.4083 -0.5061,2.3813 -0.5061,2.3812 -1.3478,6.2177 -1.3477,6.2177 -0.9072,4.2333 -0.9073,4.2334 -1.0726,5.0271 -1.0727,5.027 -1.3222,6.35 -1.3223,6.35 -0.9272,4.2334 -0.9272,4.2333 -0.2398,1.0583 -0.2398,1.0584 -0.6664,3.0427 -0.6665,3.0427 -1.0789,5.2917 -1.0789,5.2916 -0.3565,1.5875 -0.3565,1.5875 -0.6721,3.0427 -0.672,3.0427 -0.3958,1.9844 -0.3958,1.9844 -1.6286,7.6729 -1.6285,7.6729 -1.0374,5.1349 -1.0375,5.1348 -0.2987,0.9969 -0.2986,0.9968 0.1714,0.4468 0.1715,0.4467 z m 5.7392,-6.2302 h -0.4857 l -0.1427,-0.2308 -0.1427,-0.2309 0.9244,-3.9363 0.9244,-3.9364 1.4413,-6.7468 1.4413,-6.7469 0.9478,-4.4823 0.9478,-4.4822 0.6661,-2.7938 0.6662,-2.7938 1.0258,-4.8948 1.0259,-4.8948 1.5874,-7.4083 1.5875,-7.4084 0.1811,-1.0583 0.1811,-1.0583 1.1701,-5.1594 1.1701,-5.1594 1.1729,-5.6885 1.1729,-5.6886 0.5042,-2.3812 0.5041,-2.3812 0.8337,-3.8365 0.8337,-3.8365 0.8013,-3.5718 0.8013,-3.5719 0.8847,-4.2333 0.8848,-4.2334 0.4393,-1.8521 0.4393,-1.852 1.8598,-8.8636 1.8597,-8.8635 0.6098,-2.9104 0.6098,-2.9105 1.3388,-5.9531 1.3388,-5.9531 1.0904,-5.1594 1.0903,-5.1594 0.8885,-4.2333 0.8885,-4.2333 0.5422,-2.2614 0.5422,-2.2613 0.5047,-2.3689 0.5046,-2.3688 1.7517,-7.9375 1.7517,-7.9375 0.7818,-3.5719 0.7817,-3.5719 1.0847,-5.1594 1.0846,-5.1593 0.7858,-3.7042 0.7859,-3.7042 0.3706,-1.8521 0.3707,-1.852 0.5593,-2.6459 0.5592,-2.6458 0.4984,-1.9844 0.4984,-1.9844 0.7885,-4.101 0.7886,-4.101 1.4469,-6.6146 1.4469,-6.6146 1.3616,-6.35 1.3615,-6.35 0.5418,-2.249 0.5417,-2.2489 1.432,-7.0115 1.432,-7.0114 1.2289,-5.6886 1.2289,-5.6885 1.429,-6.4823 1.4291,-6.4823 1.5905,-7.8052 1.5905,-7.8052 0.9104,-3.9688 0.9105,-3.9687 1.3259,-6.35 1.3259,-6.35 0.5127,-2.249 0.5126,-2.2489 0.5745,-2.7782 0.5746,-2.7781 0.5995,-2.6458 0.5995,-2.6459 0.4551,-2.1166 0.455,-2.1167 0.5179,-2.2489 0.5179,-2.249 0.9217,-4.3656 0.9217,-4.3657 1.3436,-6.2177 1.3435,-6.2177 0.6429,-2.9104 0.6429,-2.9104 0.6258,-3.0427 0.6257,-3.0427 0.533,-2.5136 0.5329,-2.5135 0.5451,-2.249 0.545,-2.2489 1.078,-4.8948 1.0779,-4.8948 1.0591,-5.2917 1.0591,-5.2916 0.8983,-4.1011 0.8984,-4.101 0.689,-2.9104 0.689,-2.9104 0.6453,-3.3073 0.6453,-3.3073 1.0785,-4.7625 1.0785,-4.7625 0.6316,-2.6459 0.6315,-2.6458 0.964,-4.8948 0.964,-4.8948 0.6416,-2.7781 0.6417,-2.7781 1.0543,-4.8948 1.0543,-4.8948 0.7956,-3.643 0.7955,-3.643 1.7291,-8.1309 1.729,-8.131 0.9005,-4.2334 0.9004,-4.2333 2.0102,-9.1281 2.0103,-9.1281 0.529,-2.3813 0.529,-2.3812 0.6238,-3.175 0.6238,-3.175 0.4083,-1.7198 0.4083,-1.7198 1.0611,-4.7711 1.0611,-4.771 0.6614,-3.1665 0.6613,-3.1664 0.7698,-3.4396 0.7697,-3.4396 0.8435,-3.8364 0.8435,-3.8365 0.6236,-3.0427 0.6236,-3.0427 0.6649,-3.175 0.665,-3.175 0.5691,-2.9104 0.569,-2.9105 0.1115,-0.5876 0.1116,-0.5877 0.5404,-0.2892 0.5404,-0.2893 4.5497,-1.1654 4.5497,-1.1655 8.202,-2.2276 8.2021,-2.2277 4.3657,-1.2239 4.3656,-1.2238 3.3073,-0.9358 3.3073,-0.9357 3.5718,-0.9266 3.5719,-0.9267 1.5875,-0.4966 1.5875,-0.4966 0.9261,-0.1783 0.926,-0.1784 2.6458,-0.7394 2.6459,-0.7394 3.3073,-0.9868 3.3072,-0.9869 2.5021,-0.6314 2.502,-0.6315 4.2448,-1.1714 4.2449,-1.1714 6.0113,-1.6116 6.0113,-1.6116 1.1324,-0.4032 1.1325,-0.4031 1.4552,-0.3531 1.4552,-0.3531 2.3813,-0.7072 2.3812,-0.7072 6.8792,-1.8574 6.8791,-1.8574 2.8398,-0.7608 2.8398,-0.7608 2.9811,-0.9172 2.981,-0.9172 3.175,-0.8222 3.175,-0.8222 2.7781,-0.7858 2.7782,-0.7858 4.3656,-1.2043 4.3656,-1.2043 6.4308,-1.6984 6.4308,-1.6983 0.2302,-0.1424 0.2303,-0.1423 1.9379,-0.5006 1.9379,-0.5006 6.2177,-1.7189 6.2177,-1.719 5.424,-1.4991 5.424,-1.4991 3.4395,-0.8948 3.4396,-0.8947 2.249,-0.654 2.2489,-0.6539 2.7782,-0.6966 2.77809,-0.6966 2.91041,-0.809 2.91042,-0.809 3.175,-0.9225 3.175,-0.9224 2.64583,-0.7468 2.64584,-0.7467 5.02708,-1.3467 5.02708,-1.3467 2.38125,-0.6461 2.38125,-0.6461 5.42396,-1.4845 5.42396,-1.4845 2.11667,-0.6252 2.11666,-0.6252 2.11667,-0.5724 2.11667,-0.5723 3.0427,-0.7813 3.04271,-0.7814 3.04271,-0.8959 3.04271,-0.896 3.75587,-0.9447 3.75587,-0.9447 2.06496,-0.6439 2.06496,-0.6439 3.69622,-0.9725 3.69622,-0.9725 0.63658,-0.2421 0.63658,-0.242 6.19397,-1.5918 6.19396,-1.5918 3.89303,-1.1565 3.89303,-1.1564 3.175,-0.8474 3.175,-0.8475 2.7287,-0.767 2.72871,-0.7671 3.62129,-0.9339 3.62129,-0.934 3.83646,-1.0737 3.83646,-1.0738 4.89479,-1.4101 4.89479,-1.41 5.55625,-1.4791 5.55625,-1.4791 2.24896,-0.6406 2.24896,-0.6407 4.36562,-1.1916 4.36563,-1.1917 1.45521,-0.3986 1.45521,-0.3986 3.43958,-0.9447 3.43958,-0.9447 3.04271,-0.8229 3.04271,-0.8229 2.24896,-0.6246 2.24895,-0.6246 2.77813,-0.6699 2.77812,-0.67 4.10105,-1.1612 4.10104,-1.1611 3.04271,-0.8258 3.0427,-0.8257 3.70417,-1.0386 3.70417,-1.0387 5.02708,-1.3636 5.02708,-1.3637 1.71979,-0.4667 1.7198,-0.4666 4.39905,-1.2206 4.39905,-1.2207 2.6124,-0.6328 2.61241,-0.6329 7.40833,-2.0383 7.40834,-2.0383 2.99193,-0.903 2.99193,-0.9029 h 0.63047 0.63048 l 0.13133,0.2125 0.13133,0.2125 -0.51351,1.9559 -0.51352,1.956 -1.21814,5.7029 -1.21814,5.7029 -0.62839,3.3073 -0.62838,3.3073 -2.11069,10.3187 -2.1107,10.3188 -0.95696,4.4979 -0.95695,4.4979 -1.31918,6.35 -1.31918,6.35 -1.02224,4.8948 -1.02224,4.8948 -1.08409,5.1594 -1.08409,5.1593 -2.23628,11.1125 -2.23628,11.1125 -1.0452,5.0271 -1.04519,5.0271 -0.95713,4.4979 -0.95713,4.4979 -1.86118,9.1282 -1.86118,9.1281 -0.89528,4.3656 -0.89528,4.3656 -0.80553,3.8365 -0.80553,3.8365 -0.66722,3.0427 -0.66722,3.0427 -0.93236,4.3656 -0.93237,4.3656 -0.65797,3.175 -0.65797,3.175 -0.6353,3.0427 -0.63529,3.0427 -1.75168,8.4667 -1.75167,8.4667 -0.4054,1.5875 -0.40539,1.5875 -1.8174,8.9958 -1.8174,8.9958 -1.20646,5.8134 -1.20646,5.8134 -0.24296,0.9335 -0.24297,0.9335 -1.61609,7.8052 -1.61609,7.8052 -1.48059,7.0115 -1.48059,7.0114 -0.37034,1.9844 -0.37034,1.9844 -0.89998,3.9687 -0.89998,3.9688 -0.16875,0.926 -0.16876,0.9261 -0.77749,3.4395 -0.77749,3.4396 -0.12622,0.5733 -0.12622,0.5732 -1.12498,0.4079 -1.12498,0.4079 -3.70417,0.968 -3.70416,0.968 -3.43959,0.913 -3.43958,0.9129 -2.64583,0.6656 -2.64583,0.6655 -4.36563,1.2004 -4.36562,1.2004 -1.7198,0.459 -1.71979,0.459 -5.15937,1.3773 -5.15938,1.3773 -3.70416,1.0229 -3.70417,1.0229 -4.49792,1.2058 -4.49791,1.2058 -6.93827,1.8603 -6.93827,1.8603 -2.58673,0.6277 -2.58673,0.6277 -5.02708,1.3783 -5.02709,1.3783 -6.87916,1.8044 -6.87917,1.8043 -5.15938,1.384 -5.15937,1.3841 -2.24896,0.6032 -2.24896,0.6032 -4.10104,1.0881 -4.10104,1.088 -3.57187,0.9177 -3.57188,0.9177 -3.83646,1.0597 -3.83646,1.0596 -5.42395,1.4272 -5.42396,1.4273 -2.51354,0.6967 -2.51354,0.6966 -3.3073,0.914 -3.30729,0.914 -4.10104,1.0644 -4.10104,1.0643 -1.85208,0.5236 -1.85209,0.5237 -1.85208,0.5175 -1.85208,0.5176 -5.29167,1.4539 -5.29167,1.454 -4.23333,1.0807 -4.23333,1.0807 -2.38125,0.6572 -2.38124,0.6571 -8.8636,2.4077 -8.8635,2.4078 -8.0698,2.045 -8.0698,2.0451 -2.9104,0.8327 -2.9104,0.8327 -5.424,1.4909 -5.4239,1.491 -3.9688,1.0187 -3.9687,1.0187 -3.4396,0.9106 -3.4396,0.9105 -2.7781,0.7899 -2.7781,0.79 -4.3657,1.1894 -4.3656,1.1893 -0.7276,0.1638 -0.7276,0.1637 v 0.4879 0.4878 l 11.4432,11.592 11.4433,11.5919 33.3375,33.4558 33.33745,33.4557 0.30054,0.2985 0.30053,0.2985 19.01405,18.9621 19.01405,18.9621 29.76562,29.8656 29.76563,29.8656 17.87724,18.1119 17.87725,18.1118 8.05192,8.1543 8.05192,8.1543 0.0832,0.3662 0.0832,0.3662 -1.40609,0.3931 -1.40609,0.3932 -2.64583,0.7032 -2.64583,0.7033 -3.30729,0.8906 -3.3073,0.8906 -6.2177,1.6138 -6.21771,1.6138 -8.73125,2.3997 -8.73125,2.3998 -6.87917,1.7857 -6.87916,1.7856 -5.95313,1.6509 -5.95312,1.6509 -1.71979,0.4623 -1.7198,0.4624 -3.175,0.8456 -3.175,0.8457 -6.48229,1.7326 -6.48229,1.7326 -3.43958,0.8957 -3.43959,0.8958 -3.07755,0.9629 -3.07756,0.9629 -0.62661,-0.1591 -0.62661,-0.1592 -4.11619,-4.0446 -4.11619,-4.0445 -10.43589,-10.6044 -10.43589,-10.6043 -7.12285,-7.2551 -7.12284,-7.255 -9.94526,-10.0541 -9.9453,-10.0542 -8.0673,-8.1981 -8.0673,-8.1981 -4.7476,-4.8988 -4.7476,-4.8988 -15.0962,-15.3318 -15.0961,-15.3319 -17.0657,-17.1995 -17.0656,-17.1995 -18.7854,-18.9301 -18.7854,-18.9301 -12.9032,-12.8984 -12.9032,-12.8984 h -0.5002 -0.5002 l -0.8374,3.5057 -0.8374,3.5057 -1.1818,5.0271 -1.1818,5.0271 -1.7207,8.0698 -1.7207,8.0698 -0.9191,4.2333 -0.9191,4.2333 -0.415,1.7198 -0.4151,1.7198 -0.3441,1.7198 -0.3442,1.7198 -0.9705,4.3656 -0.9704,4.3656 -0.514,2.3813 -0.514,2.3812 -1.9857,9.1282 -1.9856,9.1281 -0.6609,2.8509 -0.6608,2.8509 -0.8035,4.0283 -0.8036,4.0282 -1.198,5.424 -1.198,5.4239 -0.6357,3.3073 -0.6357,3.3073 -1.6085,7.2761 -1.6084,7.276 -1.9876,9.1281 -1.9875,9.1282 -1.1709,5.6132 -1.1709,5.6132 -2.0017,9.0712 -2.0017,9.0711 -0.6635,3.4396 -0.6635,3.4396 -0.504,2.2489 -0.5039,2.249 -0.9465,4.4979 -0.9465,4.4979 -0.9005,4.1011 -0.9005,4.101 -0.9599,4.4979 -0.9599,4.4979 -0.629,2.6459 -0.629,2.6458 -1.2295,5.9531 -1.2294,5.9532 -0.6158,2.9104 -0.6157,2.9104 -0.5646,2.9104 -0.5645,2.9104 -0.7615,3.3073 -0.7615,3.3073 -0.9306,4.3656 -0.9307,4.3657 -0.8208,3.8364 -0.8208,3.8365 -1.1641,5.6885 -1.1641,5.6886 -0.9263,4.3656 -0.9263,4.3656 -0.6967,3.3073 -0.6966,3.3073 -0.4905,0.4266 -0.4904,0.4266 -2.3308,0.5759 -2.3307,0.576 -4.8948,1.3045 -4.8948,1.3045 -4.6302,1.2132 -4.6302,1.2133 -3.9688,1.0488 -3.9687,1.0489 -10.0542,2.6538 -10.0542,2.6537 -4.7625,1.2005 -4.7625,1.2004 -3.2038,0.8982 -3.2039,0.8982 -3.0138,0.7781 -3.0139,0.7781 -5.5562,1.4991 -5.5563,1.499 -5.9531,1.538 -5.9531,1.538 -1.7198,0.4444 -1.7198,0.4443 -1.6815,0.508 -1.6815,0.508 z m 192.7616,-445.5583 h 0.3407 l 1.7824,-0.5505 1.7824,-0.5505 3.6033,-0.8904 3.6033,-0.8904 6.2177,-1.6976 6.2177,-1.6975 4.7625,-1.2514 4.7625,-1.2513 5.0271,-1.4102 5.0271,-1.4102 3.9687,-1.0958 3.9688,-1.0958 1.852,-0.5173 1.8521,-0.5173 3.9688,-1.048 3.9687,-1.0481 4.7625,-1.3184 4.7625,-1.3183 5.424,-1.4808 5.4239,-1.4807 4.3657,-1.1826 4.3656,-1.1825 5.8208,-1.6027 5.8209,-1.6026 1.1906,-0.3631 1.1906,-0.3631 4.101,-1.096 4.1011,-1.096 4.7625,-1.2712 4.7625,-1.2712 4.4979,-1.2293 4.4979,-1.2293 4.1011,-1.1581 4.101,-1.1581 5.55625,-1.494 5.55625,-1.4941 3.70417,-1.0065 3.70417,-1.0065 3.175,-0.8458 3.175,-0.8458 1.98437,-0.6205 1.98438,-0.6205 5.15937,-1.3628 5.15938,-1.3627 4.23333,-1.1666 4.23333,-1.1666 4.23334,-1.1674 4.23333,-1.1674 2.38125,-0.669 2.38125,-0.669 4.36562,-1.1995 4.36563,-1.1995 5.29166,-1.3572 5.29167,-1.3572 6.08542,-1.7198 6.08541,-1.7199 7.9375,-2.0617 7.9375,-2.0617 1.98438,-0.5667 1.98437,-0.5667 4.49792,-1.1816 4.49791,-1.1816 0.28637,-0.3909 0.28637,-0.391 0.30128,-1.3991 0.30129,-1.3992 2.23969,-10.451 2.2397,-10.4511 1.34877,-6.35 1.34876,-6.35 1.56481,-7.6729 1.56481,-7.6729 0.91971,-4.3656 0.91971,-4.3657 0.69847,-3.175 0.69847,-3.175 0.36363,-1.9843 0.36363,-1.9844 1.21365,-5.6885 1.21366,-5.6886 0.7736,-3.9687 0.77361,-3.9688 0.36495,-1.7236 0.36495,-1.7236 -0.10897,-0.3269 -0.10897,-0.3269 h -0.41147 -0.41146 l -2.80763,0.8249 -2.80764,0.8249 -2.24895,0.6012 -2.24896,0.6011 -4.63021,1.3281 -4.63021,1.3282 -3.43958,0.9236 -3.43958,0.9236 -5.95313,1.6133 -5.95312,1.6133 -2.11667,0.6445 -2.11667,0.6445 -2.51354,0.7049 -2.51354,0.705 -4.36563,1.1747 -4.36562,1.1747 -2.11667,0.6718 -2.11666,0.6718 -4.10104,1.0516 -4.10105,1.0516 -2.51354,0.7626 -2.51354,0.7625 -3.57187,0.9666 -3.57188,0.9665 -3.96875,1.0363 -3.96875,1.0363 -2.24896,0.6509 -2.24895,0.6508 -3.70417,1.0645 -3.70417,1.0645 -5.29166,1.4423 -5.29167,1.4422 -4.63021,1.2306 -4.63021,1.2305 -3.175,0.9321 -3.175,0.932 -2.38125,0.6395 -2.38125,0.6395 -3.30729,0.9318 -3.30729,0.9317 -2.77817,0.7607 -2.7781,0.7607 -4.4979,1.2425 -4.4979,1.2426 -8.7313,2.5089 -8.7312,2.5088 -2.9104,0.7928 -2.9104,0.7927 -3.4396,0.9059 -3.4396,0.9058 -4.3656,1.2028 -4.3657,1.2028 -2.5135,0.7564 -2.5135,0.7564 -2.3813,0.6764 -2.3812,0.6765 -2.9105,0.7731 -2.9104,0.7732 -3.3073,0.9229 -3.3073,0.9229 -6.6145,1.8988 -6.6146,1.8988 -3.175,0.8878 -3.175,0.8877 -2.6459,0.7067 -2.6458,0.7067 -2.3812,0.6444 -2.3813,0.6445 -6.0854,1.7542 -6.0854,1.7542 -1.9844,0.4968 -1.9844,0.4969 -0.6181,0.132 -0.6181,0.132 -0.5795,0.5846 -0.5796,0.5845 -0.3379,1.8521 -0.3378,1.8521 -0.5198,2.5135 -0.5199,2.5136 -1.0724,4.8948 -1.0724,4.8948 -1.1825,5.4239 -1.1826,5.424 -0.5276,2.3812 -0.5276,2.3813 -1.1887,5.6885 -1.1887,5.6886 -0.8083,3.8364 -0.8083,3.8365 -0.8793,4.101 -0.8793,4.1011 -1.242,5.8208 -1.242,5.8208 -0.647,2.9104 -0.647,2.9105 -0.9309,4.7625 -0.9309,4.7625 -0.5038,1.654 -0.5037,1.6541 0.1521,0.3965 0.1521,0.3964 z m 6.308,-6.0854 h -0.3719 l -0.1332,-0.3471 -0.1332,-0.3472 0.5177,-2.2325 0.5177,-2.2326 1.7511,-8.8635 1.7512,-8.8636 1.0439,-4.6302 1.0439,-4.6302 1.3473,-6.2177 1.3472,-6.2177 1.1528,-5.2917 1.1528,-5.2916 1.4546,-6.6146 1.4546,-6.6146 0.1758,-1.0583 0.1759,-1.0584 0.8724,-3.5718 0.8725,-3.5719 0.4374,-2.6208 0.4375,-2.6208 0.2595,-0.485 0.2596,-0.4849 0.7199,-0.1625 0.72,-0.1624 6.2177,-1.7151 6.2177,-1.7152 3.2266,-0.8924 3.2265,-0.8924 6.8276,-1.9655 6.8276,-1.9654 5.0271,-1.3698 5.0271,-1.3697 3.7042,-1.0687 3.7041,-1.0687 2.7782,-0.7428 2.7781,-0.7427 4.101,-1.1973 4.1011,-1.1973 3.175,-0.8314 3.175,-0.8313 4.101,-1.1546 4.1011,-1.1547 2.5135,-0.651 2.5135,-0.6511 6.0855,-1.7412 6.0854,-1.7413 1.3229,-0.3904 1.3229,-0.3903 6.35,-1.7183 6.35,-1.7182 4.4979,-1.3025 4.49794,-1.3024 2.91041,-0.8143 2.91042,-0.8142 3.04271,-0.7917 3.04271,-0.7917 7.40833,-2.112 7.40833,-2.1121 2.51354,-0.653 2.51355,-0.653 5.68854,-1.6002 5.68854,-1.6002 9.12812,-2.5449 9.12813,-2.5449 2.11666,-0.6296 2.11667,-0.6296 2.24896,-0.5696 2.24896,-0.5696 3.83646,-1.0376 3.83645,-1.0375 2.77813,-0.7719 2.77812,-0.7719 4.29948,-1.2084 4.29948,-1.2084 4.16719,-1.1696 4.16719,-1.1696 3.175,-0.8089 3.175,-0.8089 4.10104,-1.2252 4.10104,-1.2252 3.04271,-0.7539 3.0427,-0.754 3.57188,-1.0919 3.57187,-1.092 1.09793,-0.2805 1.09792,-0.2806 0.45088,0.173 0.45089,0.173 -0.18564,0.4608 -0.18564,0.4608 -1.14108,5.6885 -1.14108,5.6886 -0.841,4.3656 -0.841,4.3656 -0.37741,1.5094 -0.37742,1.5094 -1.18115,5.7666 -1.18116,5.7667 -0.94856,4.4979 -0.94856,4.4979 -0.89598,4.2334 -0.89598,4.2333 -0.94122,4.3656 -0.94122,4.3657 -1.18096,5.5982 -1.18096,5.5982 -1.0381,4.5882 -1.03811,4.5883 -0.18487,1.1347 -0.18487,1.1348 -0.57032,0.3613 -0.57032,0.3614 -5.93881,1.5112 -5.93881,1.5112 -4.64453,1.2605 -4.64452,1.2605 -2.24896,0.6809 -2.24896,0.6809 -3.83645,0.9522 -3.83646,0.9521 -5.42396,1.4628 -5.42396,1.4628 -4.36562,1.2041 -4.36563,1.204 -3.83646,1.0303 -3.83645,1.0303 -1.5875,0.4997 -1.5875,0.4997 -4.7625,1.2281 -4.7625,1.2281 -2.11667,0.6184 -2.11667,0.6185 -3.43958,0.9541 -3.43958,0.954 -7.01146,1.8611 -7.01146,1.861 -3.175,0.9036 -3.175,0.9036 -4.7625,1.3135 -4.7625,1.3135 -5.42397,1.468 -5.4239,1.468 -5.0271,1.3695 -5.0271,1.3696 -1.8521,0.4609 -1.8521,0.4609 -4.8948,1.3745 -4.8948,1.3745 -3.9687,1.0595 -3.9688,1.0594 -2.7781,0.7927 -2.7781,0.7926 -4.6302,1.2693 -4.6302,1.2694 -3.5719,0.9752 -3.5719,0.9753 -5.0271,1.327 -5.027,1.3271 -5.0271,1.4041 -5.0271,1.4041 -2.6458,0.7196 -2.6459,0.7195 -2.1166,0.624 -2.1167,0.624 -3.7042,0.9555 -3.7041,0.9556 -4.1011,1.138 -4.101,1.1379 -3.175,0.8519 -3.175,0.8519 -3.7042,1.0228 -3.7042,1.0227 -5.2916,1.452 -5.2917,1.4519 -1.1577,0.4117 -1.1578,0.4117 z m 6.8684,-6.6425 0.8461,-0.2476 3.175,-0.901 3.175,-0.9011 4.3656,-1.1907 4.3656,-1.1907 4.6303,-1.2453 4.6302,-1.2452 4.7625,-1.3073 4.7625,-1.3073 1.852,-0.5432 1.8521,-0.5432 1.3229,-0.3298 1.323,-0.3298 6.4823,-1.7685 6.4822,-1.7685 3.8365,-1.0725 3.8365,-1.0726 3.4395,-1.0025 3.4396,-1.0026 1.4804,-0.4187 1.4804,-0.4187 1.6946,-0.3696 1.6946,-0.3695 5.0271,-1.3766 5.0271,-1.3766 6.0854,-1.6964 6.0854,-1.6964 2.3813,-0.6997 2.3812,-0.6996 3.8365,-0.9908 3.8364,-0.9907 5.9532,-1.6344 5.9531,-1.6344 5.2916,-1.4455 5.29172,-1.4454 2.24896,-0.618 2.24896,-0.6179 8.33437,-2.2708 8.33438,-2.2708 5.02708,-1.3456 5.02708,-1.3456 0.66146,-0.2313 0.66146,-0.2313 3.70417,-0.9774 3.70416,-0.9773 3.70417,-1.0626 3.70417,-1.0626 3.83645,-0.9975 3.83646,-0.9974 6.61458,-1.7812 6.61459,-1.7811 1.32291,-0.3351 1.32292,-0.3351 3.43958,-0.9621 3.43959,-0.9622 2.51354,-0.681 2.51354,-0.6811 4.10104,-1.1513 4.10104,-1.1513 1.05834,-0.2495 1.05833,-0.2495 4.63021,-1.2458 4.63021,-1.2458 3.00161,-0.7412 3.00161,-0.7412 0.25824,-0.2583 0.25824,-0.2582 0.51864,-2.3493 0.51865,-2.3493 1.32961,-6.35 1.32962,-6.35 0.77091,-3.4396 0.77091,-3.4396 0.78927,-3.7042 0.78926,-3.7041 1.21905,-5.5093 1.21904,-5.5092 1.01934,-5.0741 1.01935,-5.0741 1.48442,-7.1438 1.48442,-7.1437 0.38953,-1.9789 0.38953,-1.9788 0.41442,-1.4256 0.41443,-1.4256 -0.14039,-0.3659 -0.1404,-0.3658 h -0.43434 -0.43434 l -2.9474,0.9009 -2.9474,0.9009 -3.83646,1.0548 -3.83646,1.0548 -3.70416,0.985 -3.70417,0.9849 -3.96875,1.1829 -3.96875,1.1829 -2.77813,0.7412 -2.77812,0.7413 -7.54062,2.0382 -7.54063,2.0381 -1.98437,0.5258 -1.98438,0.5259 -4.49792,1.2838 -4.49791,1.2839 -5.02709,1.4452 -5.02708,1.4452 -2.77812,0.7202 -2.77813,0.7201 -4.23333,1.1828 -4.23333,1.1829 -3.3073,0.919 -3.30729,0.919 -5.15937,1.421 -5.15938,1.421 -3.96875,1.1017 -3.96875,1.1017 -3.57187,1.0267 -3.57188,1.0266 -3.0427,0.8028 -3.04271,0.8028 -5.29169,1.4714 -5.2916,1.4715 -4.1011,1.1541 -4.101,1.1541 -7.1438,2.0185 -7.1437,2.0185 -2.249,0.6305 -2.2489,0.6306 -3.0428,0.831 -3.0427,0.831 -5.5562,1.5973 -5.5563,1.5973 -4.7625,1.2783 -4.7625,1.2784 -1.852,0.5502 -1.8521,0.5503 -7.2761,1.9905 -7.276,1.9905 -1.5875,0.5021 -1.5875,0.5022 -4.4979,1.2163 -4.4979,1.2163 -3.0427,0.9002 -3.0428,0.9002 -7.276,2.0088 -7.276,2.0089 -0.6028,0.2506 -0.6027,0.2505 -0.09,0.3331 -0.09,0.333 -0.8238,3.7041 -0.8238,3.7042 -1.0722,5.1594 -1.0722,5.1594 -0.2507,0.9367 -0.2507,0.9368 -1.0388,5.0164 -1.0387,5.0163 -0.9559,4.4979 -0.9558,4.4979 -0.5103,2.1198 -0.5103,2.1199 -0.6803,3.4364 -0.6803,3.4364 -0.7769,3.3073 -0.777,3.3073 -0.9283,4.2334 -0.9284,4.2333 -0.7756,3.7042 -0.7756,3.7041 0.2512,0.3083 0.2512,0.3083 z"
       id="path9-5" /></g></svg>
